HIERARCHY
ROOT Hips
{
	OFFSET 0.000000 0.000000 0.000000
	CHANNELS 6 Xposition Yposition Zposition Zrotation Yrotation Xrotation 
	JOINT LHipJoint
	{
		OFFSET 0.000000 0.000000 0.000000
		CHANNELS 3 Zrotation Yrotation Xrotation
		JOINT LeftUpLeg
		{
			OFFSET 1.363060 -1.794630 0.839290
			CHANNELS 3 Zrotation Yrotation Xrotation
			JOINT LeftLeg
			{
				OFFSET 2.448110 -6.726130 0.000000
				CHANNELS 3 Zrotation Yrotation Xrotation
				JOINT LeftFoot
				{
					OFFSET 2.562200 -7.039590 0.000000
					CHANNELS 3 Zrotation Yrotation Xrotation
					JOINT LeftToeBase
					{
						OFFSET 0.157640 -0.433110 2.322550
						CHANNELS 3 Zrotation Yrotation Xrotation
						End Site
						{
							OFFSET 0.000000 0.000000 0.000000
						}
					}
				}
			}
		}
	}
	JOINT RHipJoint
	{
		OFFSET 0.000000 0.000000 0.000000
		CHANNELS 3 Zrotation Yrotation Xrotation
		JOINT RightUpLeg
		{
			OFFSET -1.305520 -1.794630 0.839290
			CHANNELS 3 Zrotation Yrotation Xrotation
			JOINT RightLeg
			{
				OFFSET -2.542530 -6.985550 0.000000
				CHANNELS 3 Zrotation Yrotation Xrotation
				JOINT RightFoot
				{
					OFFSET -2.568260 -7.056230 0.000000
					CHANNELS 3 Zrotation Yrotation Xrotation
					JOINT RightToeBase
					{
						OFFSET -0.164730 -0.452590 2.363150
						CHANNELS 3 Zrotation Yrotation Xrotation
						End Site
						{
							OFFSET 0.000000 0.000000 0.000000
						}
					}
				}
			}
		}
	}
	JOINT LowerBack
	{
		OFFSET 0.000000 0.000000 0.000000
		CHANNELS 3 Zrotation Yrotation Xrotation
		JOINT Spine
		{
			OFFSET 0.028270 2.035590 -0.193380
			CHANNELS 3 Zrotation Yrotation Xrotation
			JOINT Spine1
			{
				OFFSET 0.056720 2.048850 -0.042750
				CHANNELS 3 Zrotation Yrotation Xrotation
				JOINT Neck
				{
					OFFSET 0.000000 0.000000 0.000000
					CHANNELS 3 Zrotation Yrotation Xrotation
					JOINT Neck1
					{
						OFFSET -0.054170 1.746240 0.172020
						CHANNELS 3 Zrotation Yrotation Xrotation
						JOINT Head
						{
							OFFSET 0.104070 1.761360 -0.123970
							CHANNELS 3 Zrotation Yrotation Xrotation
							End Site
							{
								OFFSET 0.000000 0.000000 0.000000
							}
						}
					}
				}
				JOINT LeftShoulder
				{
					OFFSET 0.000000 0.000000 0.000000
					CHANNELS 3 Zrotation Yrotation Xrotation
					JOINT LeftArm
					{
						OFFSET 3.362410 1.200890 -0.311210
						CHANNELS 3 Zrotation Yrotation Xrotation
						JOINT LeftForeArm
						{
							OFFSET 4.983000 -0.000000 -0.000000
							CHANNELS 3 Zrotation Yrotation Xrotation
							JOINT LeftHand
							{
								OFFSET 3.483560 -0.000000 -0.000000
								CHANNELS 3 Zrotation Yrotation Xrotation
								JOINT LeftFingerBase
								{
									OFFSET 0.000000 0.000000 0.000000
									CHANNELS 3 Zrotation Yrotation Xrotation
									JOINT LeftHandIndex1
									{
										OFFSET 0.715260 -0.000000 -0.000000
										CHANNELS 3 Zrotation Yrotation Xrotation
										End Site
										{
											OFFSET 0.000000 0.000000 0.000000
										}
									}
								}
								JOINT LThumb
								{
									OFFSET 0.000000 0.000000 0.000000
									CHANNELS 3 Zrotation Yrotation Xrotation
									End Site
									{
										OFFSET 0.000000 0.000000 0.000000
									}
								}
							}
						}
					}
				}
				JOINT RightShoulder
				{
					OFFSET 0.000000 0.000000 0.000000
					CHANNELS 3 Zrotation Yrotation Xrotation
					JOINT RightArm
					{
						OFFSET -3.136600 1.374050 -0.404650
						CHANNELS 3 Zrotation Yrotation Xrotation
						JOINT RightForeArm
						{
							OFFSET -5.241900 -0.000000 -0.000000
							CHANNELS 3 Zrotation Yrotation Xrotation
							JOINT RightHand
							{
								OFFSET -3.444170 -0.000000 -0.000000
								CHANNELS 3 Zrotation Yrotation Xrotation
								JOINT RightFingerBase
								{
									OFFSET 0.000000 0.000000 0.000000
									CHANNELS 3 Zrotation Yrotation Xrotation
									JOINT RightHandIndex1
									{
										OFFSET -0.622530 -0.000000 -0.000000
										CHANNELS 3 Zrotation Yrotation Xrotation
										End Site
										{
											OFFSET 0.000000 0.000000 0.000000
										}
									}
								}
								JOINT RThumb
								{
									OFFSET 0.000000 0.000000 0.000000
									CHANNELS 3 Zrotation Yrotation Xrotation
									End Site
									{
										OFFSET 0.000000 0.000000 0.000000
									}
								}
							}
						}
					}
				}
			}
		}
	}
}
MOTION
Frames: 7
Frame Time: 0.008333
11.043719 17.943518 -29.846099 -1.604160 -68.823294 4.726872 -2.322423 -2.524444 -1.817429 11.738106 9.091922 -17.307603 0.803603 7.503717 19.909998 -7.219315 24.963654 -7.501434 7.247000 15.536400 49.802600 0.061626 2.701032 -2.886959 13.086446 -0.677432 14.808704 1.658984 -2.178888 3.597170 0.375995 -22.594293 -40.456929 -0.082900 -1.857700 5.112700 4.026440 0.368615 5.801635 0.013710 0.826935 -5.734771 -7.297749 -0.032244 -2.011116 2.200397 11.089672 -11.229406 -9.059937 16.843747 10.437453 -2.943700 8.264400 3.891600 -1.712743 -6.607920 3.099128 10.573178 -3.390763 -9.308185 9.203268 -15.041823 -1.804058 -0.705877 -0.393047 -11.788820 18.971068 -7.217431 -2.480600 -7.125000 0.000000 0.000000 -5.153100 22.627400 2.784800 2.643133 8.378647 5.365018 -1.277484 -11.635517 -51.649466 -6.617756 8.656045 -2.328077 4.700706 6.072359 12.049221 -20.719576 -42.966070 18.568500 7.125000 0.000000 0.000000 42.933200 -78.856500 -34.758400 
11.031919 17.919519 -29.776002 -3.165930 -68.268590 6.224191 -2.233442 -2.557604 -1.931652 11.788652 9.458602 -17.990098 1.031547 7.861071 21.065559 -6.961299 24.316348 -6.607539 6.548700 14.939800 47.146000 0.080614 2.713186 -2.850589 13.236342 -1.427625 14.336303 1.635004 -2.410374 4.188184 0.271325 -22.024834 -40.291384 -0.094400 -1.981600 5.454900 3.955224 0.298667 5.918679 -0.012795 0.742940 -5.720401 -7.372096 -0.089599 -2.006590 2.673371 11.274558 -11.490849 -9.434285 17.161279 10.539306 -3.057400 8.398300 4.094100 -1.679756 -6.505433 3.073804 10.666487 -3.209816 -8.793708 9.268280 -15.113777 -1.815668 -0.725499 -0.445287 -12.392755 19.071160 -6.881826 -2.363800 -7.125000 0.000000 0.000000 -5.058500 23.018800 2.687800 2.557724 8.349087 5.325598 -1.613295 -12.231883 -48.150495 -6.828645 9.176690 -2.417393 4.290806 6.473581 8.089782 -20.897915 -43.123360 18.783300 7.125000 0.000000 0.000000 43.815800 -79.075500 -35.686900 
11.019120 17.895420 -29.704105 -4.457940 -67.751742 7.531661 -2.137979 -2.638459 -1.993522 11.743654 9.886216 -18.726408 1.172795 8.172612 22.315650 -5.999595 21.192948 -8.154277 7.246900 15.536300 49.801900 0.080581 2.737473 -2.843356 13.300946 -2.276672 13.773605 1.605060 -2.661764 4.821765 0.264503 -21.633889 -39.838014 -0.060500 -1.586700 4.364900 3.786315 0.321450 5.979602 -0.014068 0.764493 -5.693293 -7.417899 -0.068936 -2.004467 2.169863 11.363882 -11.621806 -9.138559 17.271221 10.530704 -2.900400 8.448500 4.052000 -1.695497 -6.586059 3.093297 10.685274 -3.363271 -10.098951 9.107561 -14.929157 -1.781658 -0.734646 -0.394026 -11.071361 19.178897 -6.998194 -2.431200 -7.125000 0.000000 0.000000 -4.983700 22.854400 2.666600 2.524380 8.382183 5.320100 -2.316474 -11.820855 -49.751043 -6.813662 9.085773 -2.386576 4.530619 6.423001 9.512636 -21.225706 -42.857549 19.052700 7.125000 0.000000 0.000000 42.492300 -79.120800 -34.589900 
11.007220 17.869721 -29.631508 -5.667244 -67.260250 8.718238 -2.051643 -2.698336 -2.065937 11.644713 10.403960 -19.503427 1.374329 8.508766 23.562425 -5.220695 18.812732 -8.566871 7.284800 15.567100 49.943400 0.079633 2.765025 -2.832743 13.366972 -3.176521 13.183391 1.571447 -2.939284 5.522651 0.308654 -21.379594 -39.272645 -0.024200 -1.005200 2.763100 3.585945 0.433246 6.122294 -0.076369 0.911261 -5.684169 -7.556360 -0.004155 -2.060314 2.107563 11.283043 -11.417964 -9.025887 17.099198 10.281553 -2.910200 8.378800 3.914800 -1.680482 -6.639787 3.104407 10.806128 -3.772365 -11.243895 8.974246 -14.794272 -1.746425 -0.736626 -0.341489 -9.833657 19.321609 -7.122358 -2.506600 -7.125000 0.000000 0.000000 -4.887200 22.678500 2.634300 2.463798 8.395688 5.303310 -2.778139 -11.900116 -49.962846 -6.883710 9.165171 -2.394372 4.612115 6.466448 9.702788 -21.638211 -42.878280 19.448500 7.125000 0.000000 0.000000 42.322100 -79.355100 -34.626600 
11.000520 17.840222 -29.559811 -7.448342 -66.657278 10.362710 -1.911352 -2.741378 -2.170232 11.782345 10.985333 -20.331664 1.629929 8.848978 24.888525 -4.389693 16.310632 -8.904183 7.391100 15.652600 50.338500 0.084215 2.778509 -2.803766 13.775672 -3.969030 12.610606 1.536536 -3.246090 6.295913 0.236115 -20.855528 -38.999852 -0.021400 -0.943500 2.593200 3.622456 0.447819 6.416967 -0.093657 0.939205 -5.673656 -7.735990 0.000173 -2.196255 2.266595 11.261975 -11.119596 -9.086590 16.993323 9.769249 -3.016800 8.345100 3.732000 -1.650331 -6.673637 3.110913 10.990923 -3.899424 -11.548979 8.916659 -14.725758 -1.726792 -0.759799 -0.340676 -9.429359 19.517478 -6.966542 -2.478200 -7.125000 0.000000 0.000000 -4.728600 22.835000 2.531300 2.414401 8.422869 5.285869 -3.339313 -11.848791 -49.785585 -6.894431 9.210449 -2.396884 4.681216 6.557381 9.570865 -22.030338 -42.834409 19.833100 7.125000 0.000000 0.000000 41.963500 -79.565100 -34.481000 
10.998721 17.809524 -29.490614 -9.518029 -65.948129 12.279058 -1.749411 -2.753648 -2.329393 12.075564 11.592470 -21.242188 1.922295 9.189316 26.153409 -4.246426 15.936099 -8.417473 6.667900 15.045700 47.606700 0.102395 2.777890 -2.747626 14.465134 -4.569693 12.027107 1.501517 -3.554870 7.078454 0.038965 -20.046104 -39.066536 -0.050500 -1.449600 3.986800 3.822956 0.434739 6.772768 -0.088637 0.938556 -5.657359 -7.939075 -0.009599 -2.332702 2.321062 11.379878 -11.408948 -9.005876 17.167651 9.900030 -2.965200 8.420200 3.853400 -1.618172 -6.668088 3.106070 11.209404 -3.768749 -10.680489 9.003035 -14.815516 -1.741953 -0.791877 -0.398208 -10.407478 19.668803 -6.723810 -2.399400 -7.125000 0.000000 0.000000 -4.585100 23.126000 2.423300 2.357852 8.446851 5.269198 -3.915405 -11.768574 -49.418699 -6.884953 9.240852 -2.392517 4.726069 6.655668 9.239670 -22.330079 -42.660759 20.106900 7.125000 0.000000 0.000000 41.084500 -79.658400 -33.797100 
11.008720 17.772725 -29.447316 -11.268187 -64.899994 14.254070 -1.566657 -2.786180 -2.570555 12.306098 12.144534 -22.808414 2.266140 9.565572 27.593920 -4.283216 16.124158 -7.691748 5.621300 14.051000 43.442300 0.134358 2.795557 -2.655493 15.391016 -5.201526 10.991640 1.476786 -3.850012 7.825472 -0.078633 -19.634626 -39.196098 -0.073800 -1.752600 4.822300 3.769019 0.390484 6.955252 -0.077879 0.880894 -5.715897 -7.928014 -0.049118 -2.554638 2.506447 11.336658 -11.475141 -9.215374 17.129976 9.926629 -3.046300 8.389500 3.926600 -1.545330 -6.625328 3.083048 11.638185 -3.486540 -8.450035 9.267749 -15.108695 -1.797798 -0.820386 -0.523939 -13.115051 19.691942 -6.514442 -2.302500 -7.125000 0.000000 0.000000 -4.519800 23.430700 2.357000 2.289147 8.448496 5.248569 -4.347619 -11.902060 -48.558068 -6.936292 9.356889 -2.406821 4.699047 6.762314 8.510575 -22.604442 -42.544007 20.352800 7.125000 0.000000 0.000000 40.392200 -79.751500 -33.272700 
